<?xml version="1.0" encoding="utf-8"?>
<!-- Generator: Adobe Illustrator 25.4.1, SVG Export Plug-In . SVG Version: 6.00 Build 0)  -->
<svg version="1.1" id="Layer_1" xmlns="http://www.w3.org/2000/svg" xmlns:xlink="http://www.w3.org/1999/xlink" x="0px" y="0px"
	 viewBox="0 0 951.6 191.2" style="enable-background:new 0 0 951.6 191.2;" xml:space="preserve">
<style type="text/css">
	.st0{fill:url(#SVGID_1_);}
	.st1{fill:url(#SVGID_00000181807813598516661130000011556990773957299382_);}
	.st2{fill:url(#SVGID_00000005986883861615291520000009676862843794555289_);}
	.st3{fill:url(#SVGID_00000089558198132300386920000011391975714102563968_);}
	.st4{fill:url(#SVGID_00000058573369677978824020000005068791991347344550_);}
	.st5{opacity:0.5;fill:#35353A;}
	.st6{fill:#35353A;}
</style>
<g>
	<g>
		<linearGradient id="SVGID_1_" gradientUnits="userSpaceOnUse" x1="25.6662" y1="49.2824" x2="137.8053" y2="49.2824">
			<stop  offset="0" style="stop-color:#F28920"/>
			<stop  offset="0.8588" style="stop-color:#ED463C"/>
		</linearGradient>
		<path class="st0" d="M137.7,25.4c-6.5-11.1-20.3-25.3-39.6-25.3C38.8,0.8-3,48.9,0.2,96.3c0-0.6,0-1.1,0-1.7
			c0-18.9,15.9-33.3,25.8-38.9c7.4-4.1,18.6-7.4,35.2-8.7c11.8-0.9,39.3,2.5,39.3,2.5c5.9-0.1,44.5,6.7,44,49
			C151.1,59.4,144.3,36.5,137.7,25.4z"/>
		
			<linearGradient id="SVGID_00000156562290145596915140000007319587597966851226_" gradientUnits="userSpaceOnUse" x1="133.8166" y1="27.3624" x2="146.1282" y2="124.8753">
			<stop  offset="0" style="stop-color:#F28920"/>
			<stop  offset="0.8588" style="stop-color:#ED463C"/>
		</linearGradient>
		<path style="fill:url(#SVGID_00000156562290145596915140000007319587597966851226_);" d="M98.1,0.2c19.3,0,33,14.2,39.6,25.3
			c6.5,11.1,13.3,33.9,6.8,72.8c0,0.1-0.1,0.7-0.1,0.8c-1.3,16.6-11.7,29.1-20.1,34.4c-1.7,0.9-11.5,8.4-29.4,7.9
			c39.8,6.4,63.2,0.3,74.5-6.1c11.3-6.4,25.8-19.9,25.8-38.9C194.4,38.6,146.1-2.4,98.1,0.2z"/>
		
			<linearGradient id="SVGID_00000026860279228322036720000015911375340980249788_" gradientUnits="userSpaceOnUse" x1="43.3074" y1="153.998" x2="57.3519" y2="84.7367">
			<stop  offset="0" style="stop-color:#F28920"/>
			<stop  offset="0.8588" style="stop-color:#ED463C"/>
		</linearGradient>
		<path style="fill:url(#SVGID_00000026860279228322036720000015911375340980249788_);" d="M54,165.8c-2-2.9-2.7-7.2-2.9-9.8
			c-0.2-0.9-0.3-1.7-0.3-2.5c0-14.8,0-48.4,0-58.2c0-0.7,0.1-2.6,0.1-2.8c0-0.4,0.2-2.5,0.2-2.6c1-8.5,4.4-16.3,9.5-22.8
			c0.2-0.2,0.4-0.5,0.6-0.7c0.1-0.1,0.2-0.2,0.3-0.3c3.1-3.7,6.5-6.7,9.6-8.6c0,0,0,0,0.1,0c1-0.7,2-1.3,3.1-1.9
			c4.4-2.6,13.2-6.5,26.2-6.1c-39.8-6.4-63.2-0.1-74.5,6.3C14.6,62.2,0.2,75.7,0.2,94.7c0.7,55.6,45.5,95.5,91.6,96.2
			C74.5,188.8,60,176,54,165.8z"/>
		<g>
			
				<linearGradient id="SVGID_00000122722840719030206850000014624489293893706419_" gradientUnits="userSpaceOnUse" x1="50.7477" y1="153.5601" x2="50.7485" y2="153.5665">
				<stop  offset="0" style="stop-color:#F28920"/>
				<stop  offset="0.8588" style="stop-color:#ED463C"/>
			</linearGradient>
			<path style="fill:url(#SVGID_00000122722840719030206850000014624489293893706419_);" d="M50.7,153.6L50.7,153.6
				C50.7,153.6,50.7,153.6,50.7,153.6z"/>
			
				<linearGradient id="SVGID_00000000934074226806228130000015763756299948061316_" gradientUnits="userSpaceOnUse" x1="122.5032" y1="129.2535" x2="128.7432" y2="178.6766">
				<stop  offset="0" style="stop-color:#F28920"/>
				<stop  offset="0.8588" style="stop-color:#ED463C"/>
			</linearGradient>
			<path style="fill:url(#SVGID_00000000934074226806228130000015763756299948061316_);" d="M169.4,135.2
				c-11.3,6.4-34.7,12.6-74.5,6.1c0.1,0,0.1,0,0.2,0c-1.3-0.1-2.5-0.2-3.8-0.3c-12.4-0.8-27.1-2.4-40.5,12.6c0,0.3,0.1,7.8,3.1,12.2
				c6.5,11.1,23.2,25.3,42.5,25.3c55.4-0.7,95.6-42.7,97.9-86.9C191.1,119,179.1,129.7,169.4,135.2z"/>
		</g>
	</g>
	<path class="st5" d="M823.3,128.7h-45.2l-7.3,18.1h-28l44.9-102.6h28l43.9,102.6h-29.1L823.3,128.7z M815.2,108.2l-14.3-36.6
		l-14.6,36.6H815.2z"/>
	<path class="st5" d="M913.8,114.1v32.8h-27.3v-32L848,44.3h27.3l24.8,44l24.2-44h27.3L913.8,114.1z"/>
	<path class="st6" d="M273.3,44.3l47.4,61.8V44.3h25.4v102.6h-23.9l-47.4-61.5v61.5h-25.5V44.3H273.3z"/>
	<path class="st6" d="M440.1,128.7h-45.2l-7.3,18.1h-28l44.9-102.6h28l43.9,102.6h-29.1L440.1,128.7z M432.1,108.2l-14.3-36.6
		l-14.6,36.6H432.1z"/>
	<path class="st6" d="M528.6,114.1v32.8h-27.3v-32l-38.5-70.5h27.3l24.8,44l24.2-44h27.3L528.6,114.1z"/>
	<path class="st6" d="M635.3,128.7h-45.2l-7.3,18.1h-28l44.9-102.6h28l43.9,102.6h-29.1L635.3,128.7z M627.3,108.2L613,71.7
		l-14.6,36.6H627.3z"/>
	<path class="st5" d="M710.3,44.3h-45.9v54.3l20.6,48.2h6.7v-28.4h18.6c26.7,0,42.1-14,42.1-38.2C752.3,57.5,737,44.3,710.3,44.3z
		 M708.9,97.1h-17.3V65.7h17.3c11,0,17.5,5.4,17.5,15.5C726.4,91.6,720,97.1,708.9,97.1z"/>
</g>
</svg>
